# Blender v2.65 (sub 0) OBJ File: ''
# www.blender.org
mtllib box.mtl
o Cube
v -1.000000 -1.000000 1.000000
v -1.000000 -1.000000 -1.000000
v 1.000000 -1.000000 -1.000000
v 1.000000 -1.000000 1.000000
v -1.000000 1.000000 1.000000
v -1.000000 1.000000 -1.000000
v 1.000000 1.000000 -1.000000
v 1.000000 1.000000 1.000000
vt 0.250043 0.250044
vt 0.250043 0.500000
vt 0.000087 0.500000
vt 0.000087 0.250044
vt 0.250042 0.000087
vt 0.500000 0.000087
vt 0.500000 0.250044
vt 0.749956 0.250044
vt 0.749956 0.500001
vt 0.499999 0.500000
vt 0.499999 0.749957
vt 0.250042 0.749957
vt 0.999913 0.250044
vt 0.999913 0.500001
vn -1.000000 -0.000000 0.000000
vn 0.000000 0.000000 -1.000000
vn 1.000000 -0.000000 0.000000
vn 0.000000 0.000000 1.000000
vn -0.000000 -1.000000 0.000000
vn -0.000000 1.000000 0.000000
usemtl Material
s off
f 2/1/1 1/2/1 5/3/1
f 2/1/1 5/3/1 6/4/1
f 6/5/2 7/6/2 3/7/2
f 6/5/2 3/7/2 2/1/2
f 7/8/3 8/9/3 4/10/3
f 7/8/3 4/10/3 3/7/3
f 1/2/4 4/10/4 8/11/4
f 1/2/4 8/11/4 5/12/4
f 1/2/5 2/1/5 3/7/5
f 1/2/5 3/7/5 4/10/5
f 8/9/6 7/8/6 6/13/6
f 8/9/6 6/13/6 5/14/6
